<mxfile host="app.diagrams.net" modified="2023-04-27T01:31:06.222Z" agent="Mozilla/5.0 (Macintosh; Intel Mac OS X 10_15_7) AppleWebKit/537.36 (KHTML, like Gecko) Chrome/112.0.0.0 Safari/537.36" version="21.2.2" etag="kWhoFZPK3MfyWw9S-utS" type="github">
  <diagram name="Page-1" id="sWNFDeHNK5-73ws3OapL">
    <mxGraphModel>
      <root>
        <mxCell id="0" />
        <mxCell id="1" parent="0" />
      </root>
    </mxGraphModel>
  </diagram>
</mxfile>
